<svg width="14" height="16" viewBox="0 0 14 16" fill="none" xmlns="http://www.w3.org/2000/svg">
<path d="M7.00004 0C8.95473 0 10.5504 1.54521 10.633 3.47878L10.6364 3.63638L13.5455 3.63636V13.8182C13.5455 14.6215 12.8943 15.2727 12.091 15.2727H1.90914C1.10581 15.2727 0.45459 14.6215 0.45459 13.8182V3.63636L3.36368 3.63638C3.36368 1.75039 4.8062 0.188445 6.67598 0.0152035L6.83727 0.00377941L7.00004 0ZM12.091 5.09091L10.6356 5.09L10.6364 7.27273H9.18186L9.18159 5.09H4.81759L4.81823 7.27273H3.36368L3.36359 5.09L1.90914 5.09091V13.8182H12.091V5.09091ZM7.00004 1.45455L6.8909 1.45723C5.77753 1.51205 4.88644 2.40343 4.82196 3.50802L4.81823 3.63638H9.18186C9.18186 2.47597 8.27263 1.52472 7.12814 1.45825L7.00004 1.45455Z" fill="white"/>
</svg>
